<svg 
 xmlns="http://www.w3.org/2000/svg"
 xmlns:xlink="http://www.w3.org/1999/xlink"
 width="16px" height="19px">
<path fill-rule="evenodd"  fill="rgb(255, 255, 255)"
 d="M8.000,19.000 C3.586,19.000 -0.006,15.294 -0.006,10.739 C-0.006,7.580 1.698,4.744 4.441,3.337 C4.839,3.133 5.317,3.301 5.514,3.709 C5.711,4.118 5.550,4.614 5.154,4.817 C2.959,5.942 1.595,8.212 1.595,10.739 C1.595,14.383 4.468,17.348 8.000,17.348 C11.532,17.348 14.405,14.383 14.405,10.739 C14.405,8.212 13.041,5.942 10.846,4.817 C10.450,4.614 10.288,4.118 10.485,3.709 C10.683,3.301 11.161,3.133 11.559,3.337 C14.302,4.744 16.006,7.580 16.006,10.739 C16.006,15.294 12.414,19.000 8.000,19.000 ZM8.000,9.087 C7.557,9.087 7.199,8.717 7.199,8.261 L7.199,0.826 C7.199,0.369 7.557,-0.000 8.000,-0.000 C8.443,-0.000 8.801,0.369 8.801,0.826 L8.801,8.261 C8.801,8.717 8.443,9.087 8.000,9.087 Z"/>
</svg>